<mxfile host="app.diagrams.net" agent="Mozilla/5.0 (Windows NT 10.0; Win64; x64) AppleWebKit/537.36 (KHTML, like Gecko) Chrome/131.0.0.0 Safari/537.36" version="25.0.3">
  <diagram name="1 oldal" id="m7YeMCMmSsoxPjISr71d">
    <mxGraphModel dx="1674" dy="738" grid="1" gridSize="10" guides="1" tooltips="1" connect="1" arrows="1" fold="1" page="1" pageScale="1" pageWidth="827" pageHeight="1169" math="0" shadow="0">
      <root>
        <mxCell id="0" />
        <mxCell id="1" parent="0" />
        <mxCell id="pyX0QAxC14w6fG3AR624-4" value="" style="edgeStyle=orthogonalEdgeStyle;rounded=0;orthogonalLoop=1;jettySize=auto;html=1;" edge="1" parent="1" source="pyX0QAxC14w6fG3AR624-1" target="pyX0QAxC14w6fG3AR624-3">
          <mxGeometry relative="1" as="geometry" />
        </mxCell>
        <mxCell id="pyX0QAxC14w6fG3AR624-1" value="Felhasználó" style="rounded=0;whiteSpace=wrap;html=1;" vertex="1" parent="1">
          <mxGeometry x="240" y="100" width="120" height="60" as="geometry" />
        </mxCell>
        <mxCell id="pyX0QAxC14w6fG3AR624-21" style="edgeStyle=orthogonalEdgeStyle;rounded=0;orthogonalLoop=1;jettySize=auto;html=1;entryX=1;entryY=0.5;entryDx=0;entryDy=0;" edge="1" parent="1" source="pyX0QAxC14w6fG3AR624-2" target="pyX0QAxC14w6fG3AR624-17">
          <mxGeometry relative="1" as="geometry">
            <Array as="points">
              <mxPoint x="500" y="1090" />
            </Array>
          </mxGeometry>
        </mxCell>
        <mxCell id="pyX0QAxC14w6fG3AR624-2" value="Adminisztrátor" style="rounded=0;whiteSpace=wrap;html=1;" vertex="1" parent="1">
          <mxGeometry x="440" y="100" width="120" height="60" as="geometry" />
        </mxCell>
        <mxCell id="pyX0QAxC14w6fG3AR624-6" value="" style="edgeStyle=orthogonalEdgeStyle;rounded=0;orthogonalLoop=1;jettySize=auto;html=1;" edge="1" parent="1" source="pyX0QAxC14w6fG3AR624-3" target="pyX0QAxC14w6fG3AR624-5">
          <mxGeometry relative="1" as="geometry" />
        </mxCell>
        <mxCell id="pyX0QAxC14w6fG3AR624-3" value="Regisztráció" style="whiteSpace=wrap;html=1;rounded=0;" vertex="1" parent="1">
          <mxGeometry x="240" y="220" width="120" height="60" as="geometry" />
        </mxCell>
        <mxCell id="pyX0QAxC14w6fG3AR624-8" value="" style="edgeStyle=orthogonalEdgeStyle;rounded=0;orthogonalLoop=1;jettySize=auto;html=1;" edge="1" parent="1" source="pyX0QAxC14w6fG3AR624-5" target="pyX0QAxC14w6fG3AR624-7">
          <mxGeometry relative="1" as="geometry" />
        </mxCell>
        <mxCell id="pyX0QAxC14w6fG3AR624-5" value="Bejelentkezés" style="whiteSpace=wrap;html=1;rounded=0;" vertex="1" parent="1">
          <mxGeometry x="240" y="340" width="120" height="60" as="geometry" />
        </mxCell>
        <mxCell id="pyX0QAxC14w6fG3AR624-10" value="" style="edgeStyle=orthogonalEdgeStyle;rounded=0;orthogonalLoop=1;jettySize=auto;html=1;" edge="1" parent="1" source="pyX0QAxC14w6fG3AR624-7" target="pyX0QAxC14w6fG3AR624-9">
          <mxGeometry relative="1" as="geometry" />
        </mxCell>
        <mxCell id="pyX0QAxC14w6fG3AR624-7" value="Profil létrehozása" style="whiteSpace=wrap;html=1;rounded=0;" vertex="1" parent="1">
          <mxGeometry x="240" y="460" width="120" height="60" as="geometry" />
        </mxCell>
        <mxCell id="pyX0QAxC14w6fG3AR624-12" value="" style="edgeStyle=orthogonalEdgeStyle;rounded=0;orthogonalLoop=1;jettySize=auto;html=1;" edge="1" parent="1" source="pyX0QAxC14w6fG3AR624-9" target="pyX0QAxC14w6fG3AR624-11">
          <mxGeometry relative="1" as="geometry" />
        </mxCell>
        <mxCell id="pyX0QAxC14w6fG3AR624-9" value="Profil szerkesztése" style="whiteSpace=wrap;html=1;rounded=0;" vertex="1" parent="1">
          <mxGeometry x="240" y="584.5" width="120" height="60" as="geometry" />
        </mxCell>
        <mxCell id="pyX0QAxC14w6fG3AR624-14" value="" style="edgeStyle=orthogonalEdgeStyle;rounded=0;orthogonalLoop=1;jettySize=auto;html=1;" edge="1" parent="1" source="pyX0QAxC14w6fG3AR624-11" target="pyX0QAxC14w6fG3AR624-13">
          <mxGeometry relative="1" as="geometry" />
        </mxCell>
        <mxCell id="pyX0QAxC14w6fG3AR624-11" value="Profil megtekintése" style="whiteSpace=wrap;html=1;rounded=0;" vertex="1" parent="1">
          <mxGeometry x="240" y="700" width="120" height="60" as="geometry" />
        </mxCell>
        <mxCell id="pyX0QAxC14w6fG3AR624-16" value="" style="edgeStyle=orthogonalEdgeStyle;rounded=0;orthogonalLoop=1;jettySize=auto;html=1;" edge="1" parent="1" source="pyX0QAxC14w6fG3AR624-13" target="pyX0QAxC14w6fG3AR624-15">
          <mxGeometry relative="1" as="geometry" />
        </mxCell>
        <mxCell id="pyX0QAxC14w6fG3AR624-13" value="Keresés" style="whiteSpace=wrap;html=1;rounded=0;" vertex="1" parent="1">
          <mxGeometry x="240" y="820" width="120" height="60" as="geometry" />
        </mxCell>
        <mxCell id="pyX0QAxC14w6fG3AR624-18" value="" style="edgeStyle=orthogonalEdgeStyle;rounded=0;orthogonalLoop=1;jettySize=auto;html=1;" edge="1" parent="1" source="pyX0QAxC14w6fG3AR624-15" target="pyX0QAxC14w6fG3AR624-17">
          <mxGeometry relative="1" as="geometry" />
        </mxCell>
        <mxCell id="pyX0QAxC14w6fG3AR624-15" value="Üzenetküldés" style="whiteSpace=wrap;html=1;rounded=0;" vertex="1" parent="1">
          <mxGeometry x="240" y="940" width="120" height="60" as="geometry" />
        </mxCell>
        <mxCell id="pyX0QAxC14w6fG3AR624-17" value="Adminisztráció" style="whiteSpace=wrap;html=1;rounded=0;" vertex="1" parent="1">
          <mxGeometry x="240" y="1060" width="120" height="60" as="geometry" />
        </mxCell>
        <mxCell id="pyX0QAxC14w6fG3AR624-22" value="Use case diagram" style="text;html=1;align=center;verticalAlign=middle;whiteSpace=wrap;rounded=0;" vertex="1" parent="1">
          <mxGeometry x="329" y="20" width="170" height="30" as="geometry" />
        </mxCell>
      </root>
    </mxGraphModel>
  </diagram>
</mxfile>
